{"accessors":[{"bufferView":2,"componentType":5126,"count":287,"max":[0.22776314616203308,3.1833086013793945,0.23003283143043518],"min":[-0.2100289911031723,3.146803379058838,-0.49218180775642395],"type":"VEC3"},{"bufferView":2,"byteOffset":3444,"componentType":5126,"count":287,"max":[0.9983779191970825,0.9999995827674866,1],"min":[-0.9997237324714661,-0.9999994039535522,-1],"type":"VEC3"},{"bufferView":1,"componentType":5126,"count":287,"max":[0.9682905673980713,0.9771167635917664],"min":[0.03183400630950928,0.09320230782032013],"type":"VEC2"},{"bufferView":0,"componentType":5125,"count":1116,"type":"SCALAR"},{"bufferView":2,"byteOffset":6888,"componentType":5126,"count":335,"max":[0.056447505950927734,3.2045555114746094,0.011985370889306068],"min":[-0.045067038387060165,3.1597235202789307,0.011985357850790024],"type":"VEC3"},{"bufferView":2,"byteOffset":10908,"componentType":5126,"count":335,"max":[0.00004675603850046173,0.07228466123342514,1],"min":[-0.00001876751775853336,-0.009103618562221527,-1],"type":"VEC3"},{"bufferView":1,"byteOffset":2296,"componentType":5126,"count":335,"max":[0.9801257848739624,0.9853856563568115],"min":[0.6699506640434265,0.10822129249572754],"type":"VEC2"},{"bufferView":0,"byteOffset":4464,"componentType":5125,"count":900,"type":"SCALAR"},{"bufferView":2,"byteOffset":14928,"componentType":5126,"count":3252,"max":[0.8604536056518555,3.2186195850372314,0.8604536056518555],"min":[-0.8604536056518555,-0.06564961373806,-0.8604536056518555],"type":"VEC3"},{"bufferView":2,"byteOffset":53952,"componentType":5126,"count":3252,"max":[0.999994695186615,1,0.9999852180480957],"min":[-0.999994695186615,-1,-0.999994695186615],"type":"VEC3"},{"bufferView":1,"byteOffset":4976,"componentType":5126,"count":3252,"max":[0.8356124758720398,0.982526957988739],"min":[0.057174406945705414,0.03994502127170563],"type":"VEC2"},{"bufferView":0,"byteOffset":8064,"componentType":5125,"count":13680,"type":"SCALAR"},{"bufferView":2,"byteOffset":92976,"componentType":5126,"count":287,"max":[-0.027387380599975586,0.9206852316856384,2.0448834896087646],"min":[-0.06389236450195312,0.26028192043304443,1.3497700691223145],"type":"VEC3"},{"bufferView":2,"byteOffset":96420,"componentType":5126,"count":287,"max":[0.9999995231628418,0.9999534487724304,0.9990273714065552],"min":[-0.9999994039535522,-0.9959596395492554,-0.9984502196311951],"type":"VEC3"},{"bufferView":1,"byteOffset":30992,"componentType":5126,"count":287,"max":[0.9682905673980713,0.9771167635917664],"min":[0.03183400630950928,0.09320230782032013],"type":"VEC2"},{"bufferView":0,"byteOffset":62784,"componentType":5125,"count":1116,"type":"SCALAR"},{"bufferView":2,"byteOffset":99864,"componentType":5126,"count":215,"max":[-0.02951836585998535,0.7379096746444702,1.6555311679840088],"min":[-0.07435021549463272,0.6359882950782776,1.5536096096038818],"type":"VEC3"},{"bufferView":2,"byteOffset":102444,"componentType":5126,"count":215,"max":[1,0.9986295700073242,0.9986293911933899],"min":[-1,-0.9986297488212585,-0.9986295104026794],"type":"VEC3"},{"bufferView":1,"byteOffset":33288,"componentType":5126,"count":215,"max":[0.9801257848739624,0.9853856563568115],"min":[0.6699506640434265,0.10822129249572754],"type":"VEC2"},{"bufferView":0,"byteOffset":67248,"componentType":5125,"count":900,"type":"SCALAR"},{"bufferView":2,"byteOffset":105024,"componentType":5126,"count":3002,"max":[0.0180814266204834,1.552492380142212,2.4518871307373047],"min":[-3.2661876678466797,-0.16841503977775574,0.7309796810150146],"type":"VEC3"},{"bufferView":2,"byteOffset":141048,"componentType":5126,"count":3002,"max":[1,0.9999956488609314,0.9999956488609314],"min":[-1,-0.9999956488609314,-0.9999956488609314],"type":"VEC3"},{"bufferView":1,"byteOffset":35008,"componentType":5126,"count":3002,"max":[0.8356124758720398,0.982526957988739],"min":[0.057174406945705414,0.03994502127170563],"type":"VEC2"},{"bufferView":0,"byteOffset":70848,"componentType":5125,"count":13692,"type":"SCALAR"}],"asset":{"extras":{"author":"jankenneth (https://sketchfab.com/jankenneth)","license":"CC-BY-4.0 (http://creativecommons.org/licenses/by/4.0/)","source":"https://sketchfab.com/3d-models/softdrinks-c748c558e843426fa8cb6e8a11d85bfc","title":"Softdrinks"},"generator":"Sketchfab-12.65.0","version":"2.0"},"bufferViews":[{"buffer":0,"byteLength":125616,"name":"floatBufferViews","target":34963},{"buffer":0,"byteLength":59024,"byteOffset":125616,"byteStride":8,"name":"floatBufferViews","target":34962},{"buffer":0,"byteLength":177072,"byteOffset":184640,"byteStride":12,"name":"floatBufferViews","target":34962}],"buffers":[{"byteLength":361712,"uri":"data:application/octet-stream;base64,"}],"images":[{"uri":"data:application/octet-stream;base64,"},{"uri":"data:application/octet-stream;base64,"},{"uri":"data:application/octet-stream;base64,"}],"materials":[{"doubleSided":true,"name":"mat_wireframeSG","occlusionTexture":{"index":1},"pbrMetallicRoughness":{"baseColorTexture":{"index":0},"metallicFactor":0,"metallicRoughnessTexture":{"index":1},"roughnessFactor":0.6}},{"doubleSided":true,"name":"lambert5","pbrMetallicRoughness":{"baseColorTexture":{"index":2},"metallicFactor":0,"roughnessFactor":0.6}}],"meshes":[{"name":"polySurface7_mat_wireframeSG_0","primitives":[{"attributes":{"NORMAL":1,"POSITION":0,"TEXCOORD_0":2},"indices":3,"material":0,"mode":4}]},{"name":"polySurface8_mat_wireframeSG_0","primitives":[{"attributes":{"NORMAL":5,"POSITION":4,"TEXCOORD_0":6},"indices":7,"material":0,"mode":4}]},{"name":"polySurface9_lambert5_0","primitives":[{"attributes":{"NORMAL":9,"POSITION":8,"TEXCOORD_0":10},"indices":11,"material":1,"mode":4}]},{"name":"polySurface10_mat_wireframeSG_0","primitives":[{"attributes":{"NORMAL":13,"POSITION":12,"TEXCOORD_0":14},"indices":15,"material":0,"mode":4}]},{"name":"polySurface11_mat_wireframeSG_0","primitives":[{"attributes":{"NORMAL":17,"POSITION":16,"TEXCOORD_0":18},"indices":19,"material":0,"mode":4}]},{"name":"polySurface12_mat_wireframeSG_0","primitives":[{"attributes":{"NORMAL":21,"POSITION":20,"TEXCOORD_0":22},"indices":23,"material":0,"mode":4}]}],"nodes":[{"children":[1],"matrix":[1,0,0,0,0,2.220446049250313e-16,-1,0,0,1,2.220446049250313e-16,0,0,0,0,1],"name":"Sketchfab_model"},{"children":[2],"matrix":[1,0,0,0,0,0,1,0,0,-1,0,0,0,0,0,1],"name":"38853892803f40d29e8191eea2c0f77b.fbx"},{"children":[3],"name":"RootNode"},{"children":[4,6,8,10,12,14],"name":"polySurface1"},{"children":[5],"name":"polySurface7"},{"mesh":0,"name":"polySurface7_mat_wireframeSG_0"},{"children":[7],"name":"polySurface8"},{"mesh":1,"name":"polySurface8_mat_wireframeSG_0"},{"children":[9],"name":"polySurface9"},{"mesh":2,"name":"polySurface9_lambert5_0"},{"children":[11],"name":"polySurface10"},{"mesh":3,"name":"polySurface10_mat_wireframeSG_0"},{"children":[13],"name":"polySurface11"},{"mesh":4,"name":"polySurface11_mat_wireframeSG_0"},{"children":[15],"name":"polySurface12"},{"mesh":5,"name":"polySurface12_mat_wireframeSG_0"}],"samplers":[{"magFilter":9729,"minFilter":9987,"wrapS":10497,"wrapT":10497}],"scene":0,"scenes":[{"name":"Sketchfab_Scene","nodes":[0]}],"textures":[{"sampler":0,"source":0},{"sampler":0,"source":1},{"sampler":0,"source":2}]}